# xmcd
#
# Track frame offsets: 
#        150
#        14775
#        28885
#        44692
#        59671
#
# Disc length: 991 seconds
#
# Revision: 0
# Processed by: cddbd v1.5.2PL0 Copyright (c) Steve Scherf et al.
# Submitted via: ExactAudioCopyFreeDBPlugin 1.0
#
DISCID=4b03dd05
DTITLE=JT Harding - JT Harding Songs (Demo)
DYEAR=1900
DGENRE=Country
TTITLE0=Country Kids
TTITLE1=Stupid White Men
TTITLE2=This Town
TTITLE3=Goddamn You, Jesus
TTITLE4=Party Like a Rockstar
EXTD=
EXTT0=
EXTT1=
EXTT2=
EXTT3=
EXTT4=
PLAYORDER=
